<?xml version="1.0" encoding="UTF-8" standalone="no"?><!DOCTYPE svg PUBLIC "-//W3C//DTD SVG 1.1//EN" "http://www.w3.org/Graphics/SVG/1.1/DTD/svg11.dtd"><svg width="100%" height="100%" viewBox="0 0 21 19" version="1.1" xmlns="http://www.w3.org/2000/svg" xmlns:xlink="http://www.w3.org/1999/xlink" xml:space="preserve" style="fill-rule:evenodd;clip-rule:evenodd;stroke-linejoin:round;stroke-miterlimit:1.41421;"><path d="M19.39,2.099c-0.578,-1.735 -1.346,-2.099 -1.889,-2.099c-0.011,0 -0.023,0 -0.035,0.001c-0.553,0.012 -1.536,0.299 -3.008,0.731c-3.084,0.903 -7.744,2.269 -12.458,2.269c-1.14,0 -2,1.505 -2,3.5c0,1.995 0.86,3.5 2,3.5c0.369,0 0.738,0.008 1.105,0.024l1.666,6.628c0.19,0.756 0.949,1.348 1.729,1.348l1.313,0c0.433,0 0.801,-0.18 1.008,-0.495c0.207,-0.315 0.229,-0.723 0.06,-1.121l-2.577,-6.048c3.136,0.462 6.022,1.308 8.154,1.932c1.472,0.431 2.455,0.719 3.008,0.731c0.012,0 0.023,0.001 0.035,0.001c0.542,0 1.31,-0.364 1.889,-2.099c0.394,-1.183 0.611,-2.746 0.611,-4.401c0,-1.655 -0.217,-3.218 -0.611,-4.401l0,-0.001ZM16.001,6.5c0,-0.513 0.022,-1.015 0.064,-1.496c0.513,0.052 0.936,0.716 0.936,1.496c0,0.78 -0.422,1.445 -0.936,1.496c-0.042,-0.481 -0.064,-0.983 -0.064,-1.496ZM1.001,6.5c0,-1.526 0.592,-2.5 1,-2.5c1.135,0 2.264,-0.076 3.368,-0.204c-0.237,0.758 -0.368,1.697 -0.368,2.704c0,1.007 0.13,1.946 0.368,2.704c-1.104,-0.128 -2.233,-0.204 -3.368,-0.204c-0.408,0 -1,-0.974 -1,-2.5l0,0ZM7.962,16.776c0.041,0.096 0.038,0.16 0.026,0.178c-0.012,0.018 -0.069,0.046 -0.174,0.046l-1.313,0c-0.319,0 -0.681,-0.282 -0.759,-0.592l-1.588,-6.319c0.335,0.027 0.669,0.059 1,0.097l2.808,6.59ZM6.49,9.353c-0.304,-0.687 -0.489,-1.748 -0.489,-2.853c0,-1.122 0.18,-2.163 0.488,-2.852c3.185,-0.473 6.096,-1.325 8.25,-1.957c0.415,-0.122 0.811,-0.238 1.171,-0.339c-0.103,0.215 -0.203,0.463 -0.298,0.747c-0.394,1.183 -0.611,2.746 -0.611,4.401c0,1.655 0.217,3.218 0.611,4.401c0.095,0.284 0.195,0.532 0.298,0.747c-0.36,-0.101 -0.756,-0.217 -1.171,-0.339c-2.155,-0.631 -5.065,-1.484 -8.25,-1.957l0.001,0.001ZM18.441,10.585c-0.373,1.12 -0.778,1.415 -0.94,1.415c-0.162,0 -0.567,-0.296 -0.94,-1.415c-0.157,-0.47 -0.283,-1.009 -0.375,-1.596c0.486,-0.056 0.943,-0.331 1.276,-0.775c0.348,-0.464 0.539,-1.073 0.539,-1.714c0,-0.641 -0.192,-1.251 -0.539,-1.714c-0.333,-0.444 -0.79,-0.719 -1.276,-0.775c0.093,-0.586 0.219,-1.126 0.375,-1.596c0.373,-1.12 0.778,-1.416 0.94,-1.416c0.162,0 0.567,0.296 0.94,1.415c0.361,1.084 0.56,2.534 0.56,4.085c0,1.551 -0.199,3.001 -0.56,4.085l0,0.001Z" style="fill:#fff;fill-rule:nonzero;"/></svg>