<?xml version="1.0" encoding="UTF-8" standalone="no"?><!DOCTYPE svg PUBLIC "-//W3C//DTD SVG 1.1//EN" "http://www.w3.org/Graphics/SVG/1.1/DTD/svg11.dtd"><svg width="100%" height="100%" viewBox="0 0 90 90" version="1.1" xmlns="http://www.w3.org/2000/svg" xmlns:xlink="http://www.w3.org/1999/xlink" xml:space="preserve" style="fill-rule:evenodd;clip-rule:evenodd;stroke-linejoin:round;stroke-miterlimit:1.41421;"><path id="Facebook__x28_alt_x29_" d="M90,15.001c0,-7.882 -7.116,-15.001 -15,-15.001l-60,0c-7.884,0 -15,7.119 -15,15.001l0,59.998c0,7.882 7.116,15.001 15.001,15.001l29.999,0l0,-34l-11,0l0,-15l11,0l0,-5.844c0,-10.079 7.568,-19.156 16.875,-19.156l12.125,0l0,15l-12.125,0c-1.327,0 -2.875,1.611 -2.875,4.024l0,5.976l15,0l0,15l-15,0l0,34l16,0c7.884,0 15,-7.119 15,-15.001l0,-59.998Z" style="fill:#eee;fill-rule:nonzero;"/></svg>