<?xml version="1.0" encoding="UTF-8" standalone="no"?><!DOCTYPE svg PUBLIC "-//W3C//DTD SVG 1.1//EN" "http://www.w3.org/Graphics/SVG/1.1/DTD/svg11.dtd"><svg width="100%" height="100%" viewBox="0 0 19 13" version="1.1" xmlns="http://www.w3.org/2000/svg" xmlns:xlink="http://www.w3.org/1999/xlink" xml:space="preserve" style="fill-rule:evenodd;clip-rule:evenodd;stroke-linejoin:round;stroke-miterlimit:1.41421;"><path d="M18.658,3.025l-9,-3c-0.103,-0.034 -0.214,-0.034 -0.316,0l-9,3c-0.204,0.068 -0.342,0.259 -0.342,0.474c0,0.215 0.138,0.406 0.342,0.474l2.658,0.886l0,2.64c0,0.133 0.053,0.26 0.146,0.354c0.088,0.088 2.194,2.146 6.354,2.146c1.513,0 2.924,-0.272 4.195,-0.809c0.254,-0.107 0.373,-0.401 0.266,-0.655c-0.107,-0.254 -0.401,-0.373 -0.655,-0.266c-1.147,0.485 -2.427,0.73 -3.805,0.73c-1.945,0 -3.376,-0.504 -4.234,-0.926c-0.635,-0.313 -1.06,-0.629 -1.266,-0.799l0,-2.081l5.342,1.781c0.05,0.017 0.104,0.026 0.157,0.026c0.053,0 0.107,-0.009 0.158,-0.026l5.342,-1.781l0,0.892c-0.582,0.206 -1,0.762 -1,1.414c0,0.611 0.367,1.137 0.892,1.371l-0.877,3.508c-0.037,0.149 -0.004,0.308 0.091,0.429c0.095,0.121 0.24,0.192 0.394,0.192l2,0c0.154,0 0.299,-0.071 0.394,-0.192c0.095,-0.121 0.128,-0.28 0.091,-0.429l-0.877,-3.508c0.525,-0.234 0.892,-0.76 0.892,-1.371c0,-0.652 -0.418,-1.208 -1,-1.414l0,-1.226l2.659,-0.886c0.204,-0.068 0.341,-0.259 0.341,-0.474c0,-0.215 -0.138,-0.406 -0.341,-0.474l-0.001,0l0,0ZM15.5,6.999c0.276,0 0.5,0.224 0.5,0.5c0,0.276 -0.224,0.5 -0.5,0.5c-0.276,0 -0.5,-0.224 -0.5,-0.5c0,-0.276 0.224,-0.5 0.5,-0.5ZM14.767,12.336l0.716,-3.043l0.723,2.99l-1.439,0.053ZM15.46,3.985l-5.877,-0.98c-0.273,-0.045 -0.53,0.139 -0.575,0.411c-0.045,0.272 0.139,0.53 0.411,0.575l4.014,0.669l-3.932,1.311l-7.419,-2.473l7.419,-2.473l7.419,2.473l-1.459,0.486l-0.002,0.001l0.001,0Z" style="fill:#fff;fill-rule:nonzero;"/></svg>