<?xml version="1.0" encoding="UTF-8" standalone="no"?><!DOCTYPE svg PUBLIC "-//W3C//DTD SVG 1.1//EN" "http://www.w3.org/Graphics/SVG/1.1/DTD/svg11.dtd"><svg width="100%" height="100%" viewBox="0 0 431 431" version="1.1" xmlns="http://www.w3.org/2000/svg" xmlns:xlink="http://www.w3.org/1999/xlink" xml:space="preserve" style="fill-rule:evenodd;clip-rule:evenodd;stroke-linejoin:round;stroke-miterlimit:1.41421;"><path id="LinkedIn__x28_alt_x29_" d="M398.355,0l-366.573,0c-17.553,0 -31.78,13.793 -31.78,30.817l0,368.471c0,17.025 14.232,30.83 31.78,30.83l366.573,0c17.549,0 31.76,-13.814 31.76,-30.83l0,-368.471c0,-17.019 -14.211,-30.817 -31.76,-30.817ZM130.4,360.038l-64.987,0l0,-194.193l64.987,0l0,194.193ZM97.913,139.315l-0.437,0c-21.793,0 -35.92,-14.904 -35.92,-33.563c0,-19.035 14.542,-33.535 36.767,-33.535c22.227,0 35.899,14.496 36.331,33.535c0,18.663 -14.099,33.563 -36.741,33.563ZM364.659,360.038l-64.966,0l0,-103.9c0,-26.107 -9.413,-43.921 -32.907,-43.921c-17.973,0 -28.642,12.018 -33.327,23.621c-1.736,4.144 -2.166,9.94 -2.166,15.728l0,108.468l-64.954,0c0,0 0.85,-175.979 0,-194.192l64.964,0l0,27.531c8.624,-13.229 24.035,-32.1 58.534,-32.1c42.76,0 74.822,27.739 74.822,87.414l0,111.351ZM230.883,193.99c0.111,-0.182 0.266,-0.401 0.42,-0.614l0,0.614l-0.42,0Z" style="fill:#fff;fill-rule:nonzero;"/></svg>