<?xml version="1.0" encoding="UTF-8" standalone="no"?><!DOCTYPE svg PUBLIC "-//W3C//DTD SVG 1.1//EN" "http://www.w3.org/Graphics/SVG/1.1/DTD/svg11.dtd"><svg width="100%" height="100%" viewBox="0 0 19 16" version="1.1" xmlns="http://www.w3.org/2000/svg" xmlns:xlink="http://www.w3.org/1999/xlink" xml:space="preserve" style="fill-rule:evenodd;clip-rule:evenodd;stroke-linejoin:round;stroke-miterlimit:1.41421;"><path d="M17.5,0l-16,0c-0.827,0 -1.5,0.673 -1.5,1.5l0,10c0,0.827 0.673,1.5 1.5,1.5l7.5,0l0,2l-3.5,0c-0.276,0 -0.5,0.224 -0.5,0.5c0,0.276 0.224,0.5 0.5,0.5l8,0c0.276,0 0.5,-0.224 0.5,-0.5c0,-0.276 -0.224,-0.5 -0.5,-0.5l-3.5,0l0,-2l7.5,0c0.827,0 1.5,-0.673 1.5,-1.5l0,-10c0,-0.827 -0.673,-1.5 -1.5,-1.5ZM18,11.5c0,0.276 -0.224,0.5 -0.5,0.5l-16,0c-0.276,0 -0.5,-0.224 -0.5,-0.5l0,-10c0,-0.276 0.224,-0.5 0.5,-0.5l16,0c0.276,0 0.5,0.224 0.5,0.5l0,10Z" style="fill:#fff;fill-rule:nonzero;"/></svg>