<?xml version="1.0" encoding="UTF-8" standalone="no"?><!DOCTYPE svg PUBLIC "-//W3C//DTD SVG 1.1//EN" "http://www.w3.org/Graphics/SVG/1.1/DTD/svg11.dtd"><svg width="100%" height="100%" viewBox="0 0 21 19" version="1.1" xmlns="http://www.w3.org/2000/svg" xmlns:xlink="http://www.w3.org/1999/xlink" xml:space="preserve" style="fill-rule:evenodd;clip-rule:evenodd;stroke-linejoin:round;stroke-miterlimit:1.41421;"><g><path d="M16.133,1.584l-11.265,0c-0.361,0 -0.655,0.222 -0.655,0.497l0,1.693c0,0.275 0.294,0.497 0.655,0.497l11.265,0c0.36,0 0.654,-0.222 0.654,-0.497l0,-1.693c0,-0.275 -0.295,-0.497 -0.654,-0.497Z" style="fill:none;stroke-width:1px;stroke:#fff;"/><path d="M16.133,5.542l-11.265,0c-0.361,0 -0.655,0.222 -0.655,0.497l0,1.693c0,0.275 0.294,0.497 0.655,0.497l11.265,0c0.36,0 0.654,-0.222 0.654,-0.497l0,-1.693c0,-0.275 -0.295,-0.497 -0.654,-0.497Z" style="fill:none;stroke-width:1px;stroke:#fff;"/><path d="M16.133,9.5l-11.265,0c-0.361,0 -0.655,0.222 -0.655,0.497l0,1.693c0,0.275 0.294,0.497 0.655,0.497l11.265,0c0.36,0 0.654,-0.222 0.654,-0.497l0,-1.693c0,-0.275 -0.295,-0.497 -0.654,-0.497Z" style="fill:none;stroke-width:1px;stroke:#fff;"/><path d="M12.446,15.005l-1.201,0l0,-1.747l-1.489,0l0,1.747l-1.202,0l0,0.46l-4.203,0l0,1.49l4.203,0l0,0.461l3.892,0l0,-0.461l4.202,0l0,-1.49l-4.202,0l0,-0.46Z" style="fill:none;stroke-width:1px;stroke:#fff;"/></g></svg>