<?xml version="1.0" encoding="UTF-8" standalone="no"?><!DOCTYPE svg PUBLIC "-//W3C//DTD SVG 1.1//EN" "http://www.w3.org/Graphics/SVG/1.1/DTD/svg11.dtd"><svg width="100%" height="100%" viewBox="0 0 738 741" version="1.1" xmlns="http://www.w3.org/2000/svg" xmlns:xlink="http://www.w3.org/1999/xlink" xml:space="preserve" style="fill-rule:evenodd;clip-rule:evenodd;stroke-linejoin:round;stroke-miterlimit:1.41421;"><path d="M630.056,107.658c-69.329,-69.387 -161.531,-107.619 -259.762,-107.658c-202.403,0 -367.134,164.668 -367.215,367.072c-0.027,64.699 16.883,127.855 49.016,183.523l-52.095,190.229l194.666,-51.047c53.634,29.244 114.022,44.656 175.481,44.682l0.151,0c202.382,0 367.128,-164.689 367.21,-367.094c0.039,-98.088 -38.121,-190.32 -107.452,-259.707M370.298,672.458l-0.125,0c-54.766,-0.021 -108.483,-14.729 -155.343,-42.529l-11.146,-6.613l-115.516,30.293l30.834,-112.592l-7.258,-11.543c-30.552,-48.58 -46.689,-104.729 -46.665,-162.379c0.067,-168.23 136.986,-305.095 305.34,-305.095c81.521,0.031 158.154,31.81 215.779,89.482c57.625,57.672 89.342,134.332 89.311,215.859c-0.07,168.242 -136.987,305.117 -305.211,305.117M537.713,443.944c-9.176,-4.591 -54.286,-26.782 -62.697,-29.843c-8.41,-3.061 -14.526,-4.591 -20.644,4.592c-6.116,9.182 -23.7,29.843 -29.054,35.964c-5.351,6.122 -10.703,6.888 -19.879,2.296c-9.175,-4.591 -38.739,-14.276 -73.786,-45.526c-27.275,-24.32 -45.691,-54.36 -51.043,-63.542c-5.352,-9.183 -0.569,-14.148 4.024,-18.72c4.127,-4.11 9.175,-10.713 13.763,-16.07c4.587,-5.356 6.116,-9.182 9.174,-15.303c3.059,-6.122 1.53,-11.479 -0.764,-16.07c-2.294,-4.591 -20.643,-49.739 -28.29,-68.104c-7.447,-17.886 -15.012,-15.466 -20.644,-15.746c-5.346,-0.266 -11.469,-0.323 -17.585,-0.323c-6.117,0 -16.057,2.296 -24.468,11.478c-8.41,9.183 -32.112,31.374 -32.112,76.521c0,45.147 32.877,88.763 37.465,94.885c4.587,6.122 64.699,98.771 156.741,138.502c21.891,9.45 38.982,15.093 52.307,19.323c21.981,6.979 41.983,5.994 57.793,3.633c17.628,-2.633 54.285,-22.19 61.932,-43.616c7.646,-21.426 7.646,-39.791 5.352,-43.617c-2.293,-3.826 -8.41,-6.122 -17.585,-10.714" style="fill:#fff;"/></svg>